<?xml version="1.0" standalone="no"?>
<!DOCTYPE svg PUBLIC "-//W3C//DTD SVG 20010904//EN"
 "http://www.w3.org/TR/2001/REC-SVG-20010904/DTD/svg10.dtd">
<svg version="1.0" xmlns="http://www.w3.org/2000/svg"
 width="512.000000pt" height="512.000000pt" viewBox="0 0 512.000000 512.000000"
 preserveAspectRatio="xMidYMid meet">
<metadata>
Created by potrace 1.16, written by Peter Selinger 2001-2019
</metadata>
<g transform="translate(0.000000,512.000000) scale(0.100000,-0.100000)"
fill="#000000" stroke="none">
<path d="M2475 4823 c-16 -16 -18 -41 -14 -303 l4 -285 -70 -7 c-38 -4 -293
-6 -566 -5 l-495 1 -45 -26 c-24 -14 -174 -94 -334 -178 -159 -84 -328 -174
-375 -200 -47 -26 -104 -51 -128 -55 l-42 -7 2 -566 3 -567 823 -3 c605 -1
822 -5 822 -13 0 -9 -262 -11 -1017 -7 -560 3 -1024 3 -1030 1 -11 -4 -19 -30
-10 -34 1 -1 94 -5 206 -8 148 -4 205 -9 208 -18 4 -10 -43 -13 -199 -15 -173
-3 -203 -5 -203 -18 0 -13 30 -15 198 -18 l197 -2 0 -554 0 -554 23 -6 c12 -3
187 -6 390 -6 l367 0 0 -127 c0 -71 3 -158 7 -196 l6 -67 603 0 c340 0 613 -4
627 -9 l24 -9 7 -257 c3 -142 9 -261 12 -266 6 -10 124 -12 148 -3 14 5 16 38
16 258 0 139 5 258 10 266 8 13 79 15 519 15 l509 0 61 -43 c33 -23 65 -42 71
-42 6 0 27 11 48 23 20 13 147 84 282 157 135 73 299 163 365 200 66 37 131
71 145 75 54 16 51 -13 49 584 l-2 556 208 5 c151 4 209 8 212 17 7 20 -33 24
-252 21 l-210 -3 -3 -543 -2 -543 -68 3 -67 3 -3 110 c-3 110 4 167 60 440 15
75 21 155 25 322 5 215 6 222 27 227 11 4 113 9 226 12 234 6 270 10 270 28 0
19 -67 26 -244 26 -105 0 -156 4 -164 12 -9 9 -12 148 -12 564 0 429 -3 554
-12 561 -7 6 -27 13 -45 16 -17 3 -60 23 -95 45 -34 21 -153 87 -263 147 -110
59 -265 145 -345 189 l-145 81 -569 2 c-313 2 -572 5 -575 9 -3 3 -8 139 -11
302 l-5 297 -71 3 c-58 2 -75 -1 -89 -15z m115 -547 c0 -436 -2 -496 -16 -510
-11 -11 -20 -13 -33 -6 -16 8 -18 38 -24 347 -9 431 -9 648 0 656 3 4 21 7 40
7 l33 0 0 -494z m-263 -111 c3 -9 3 -19 -1 -22 -10 -11 -930 -15 -945 -5 -8 6
-11 17 -8 26 6 14 55 16 477 16 415 0 471 -2 477 -15z m1381 -2 c-3 -16 -20
-19 -118 -24 -205 -11 -818 -10 -825 1 -4 6 -4 17 -1 25 5 13 74 15 476 15
444 0 471 -1 468 -17z m324 -124 c309 -168 439 -242 434 -246 -8 -8 -291 18
-365 33 -112 23 -334 84 -348 96 -9 7 -13 41 -13 102 0 98 14 136 50 136 10 0
119 -55 242 -121z m-2697 -21 c4 -68 5 -145 3 -173 l-3 -50 -235 -5 c-129 -3
-284 -3 -343 -1 l-109 4 84 44 c104 56 491 260 538 284 19 10 40 18 46 19 8 0
14 -40 19 -122z m1103 61 c-4 -12 -1028 -19 -1028 -7 0 14 50 16 533 17 352 1
498 -2 495 -10z m1192 1 c0 -6 -111 -10 -313 -10 -173 0 -389 -3 -481 -7 -150
-6 -168 -8 -177 -25 -10 -19 0 -19 469 -12 263 4 491 4 505 0 l27 -6 0 -124
c0 -120 -1 -124 -22 -130 -33 -8 -971 -7 -984 2 -8 4 -13 59 -15 156 -4 141
-3 149 16 157 31 12 975 11 975 -1z m-1247 -58 l67 -2 0 -124 c0 -104 -3 -125
-16 -130 -9 -3 -225 -6 -480 -6 -385 0 -466 -2 -470 -14 -9 -23 -179 -29 -568
-19 l-361 8 435 5 435 5 3 137 3 137 27 3 c28 3 806 3 925 0z m1769 -289 c-95
-2 -248 -2 -340 0 -92 1 -14 3 173 3 187 0 262 -2 167 -3z m-2742 -51 c19 -4
-156 -9 -390 -12 l-425 -5 0 -500 0 -500 -65 0 -65 0 -3 505 c-1 278 0 510 2
515 4 12 889 9 946 -3z m304 2 c3 -9 6 -240 6 -514 0 -445 -2 -499 -16 -504
-9 -3 -58 -6 -110 -6 l-94 0 0 513 c0 283 3 517 7 520 3 4 50 7 104 7 79 0 98
-3 103 -16z m1894 4 c9 -9 12 -137 12 -515 l0 -503 -22 -5 c-13 -3 -61 -5
-108 -3 l-85 3 -3 518 -2 517 98 0 c63 0 102 -4 110 -12z m837 -8 c-4 -6 -145
-10 -391 -10 -249 0 -384 4 -384 10 0 6 137 10 391 10 257 0 388 -3 384 -10z
m205 -476 c0 -384 -3 -485 -12 -482 -8 3 -16 37 -21 89 -5 47 -20 115 -34 154
-43 115 -43 235 1 455 8 41 18 119 21 173 6 86 9 97 26 97 18 0 19 -15 19
-486z m-1312 454 c9 -9 12 -135 12 -504 l0 -491 -142 -5 c-79 -3 -149 -3 -155
-1 -10 4 -13 71 -15 272 l-3 266 -485 0 -485 0 -3 -266 -2 -266 -143 -5 c-78
-3 -148 -3 -154 -1 -18 7 -19 983 -1 1001 17 17 1559 17 1576 0z m-1898 -35
c3 -3 6 -220 8 -483 l3 -479 -93 -3 c-178 -7 -694 -9 -711 -2 -16 6 -17 46
-17 488 0 266 3 485 6 488 6 7 797 -2 804 -9z m3005 -478 l0 -480 -373 -8
c-205 -5 -380 -6 -388 -3 -12 5 -14 79 -14 491 l0 485 388 -2 387 -3 0 -480z
m-2270 -258 c10 -76 19 -136 21 -135 1 2 7 70 13 151 5 87 14 154 21 162 10
13 63 15 324 15 171 0 318 -4 326 -9 10 -7 16 -41 21 -123 10 -161 20 -183 35
-85 31 199 42 113 43 -328 0 -282 -2 -354 -13 -368 -14 -18 -14 -18 -20 0 -2
10 -8 45 -11 78 -12 110 -19 101 -31 -36 -6 -75 -14 -142 -18 -148 -9 -14
-642 -16 -650 -2 -12 19 -36 169 -37 231 -1 93 -15 40 -31 -117 -6 -68 -15
-123 -19 -123 -14 0 -19 153 -19 572 0 538 6 576 45 265z m2490 -277 c-4 -7
-289 -10 -821 -10 -541 0 -813 3 -809 10 4 7 289 10 821 10 541 0 813 -3 809
-10z m-2595 -65 c0 -13 -89 -15 -739 -15 l-738 0 1 -494 c1 -466 0 -495 -17
-514 -29 -32 -97 -76 -105 -68 -4 4 -8 252 -10 551 -2 513 -2 544 15 548 10 3
372 5 806 6 693 1 787 -1 787 -14z m2388 -2 c3 -10 -143 -13 -707 -13 -646 0
-748 3 -698 23 6 3 324 5 706 4 545 -2 695 -5 699 -14z m-3016 -66 c4 -7 8
-229 8 -495 l0 -483 -397 3 c-219 2 -404 7 -410 11 -16 10 -19 973 -3 979 5 2
186 2 402 0 291 -2 394 -6 400 -15z m505 13 l112 0 3 -279 c2 -154 5 -282 8
-285 3 -3 222 -6 485 -6 l480 -2 3 286 2 286 155 0 155 0 2 -477 c1 -478 1
-514 -6 -520 -9 -9 -896 -15 -1228 -8 l-368 7 0 498 0 499 23 4 c12 3 31 3 42
1 11 -2 70 -4 132 -4z m2507 -486 c4 -275 3 -491 -2 -496 -4 -4 -181 -7 -393
-6 l-384 3 -3 493 -2 492 388 0 389 0 7 -486z m-2739 434 c3 -13 4 -248 3
-523 l-3 -500 -94 -3 c-60 -2 -98 1 -107 9 -12 10 -14 97 -14 525 l0 514 105
0 c100 0 105 -1 110 -22z m1903 -500 l2 -518 -22 -5 c-13 -3 -61 -5 -108 -3
l-85 3 -3 523 -2 523 107 -3 108 -3 3 -517z m-2168 -493 c0 -13 -57 -15 -452
-15 -401 1 -451 2 -434 15 30 23 886 22 886 0z m3018 -3 c3 -9 -89 -12 -392
-12 -217 0 -397 4 -400 9 -3 4 -2 11 1 15 4 4 182 5 397 3 291 -2 391 -6 394
-15z m-2054 -108 c13 -5 16 -25 16 -120 l0 -114 -497 2 -498 3 -3 104 c-1 58
0 111 2 118 4 10 97 13 485 13 264 0 486 -3 495 -6z m1234 -6 c8 -8 12 -49 12
-120 l0 -108 -497 2 -498 3 -3 112 c-3 109 -2 112 20 116 13 2 232 5 488 6
351 1 469 -2 478 -11z m-1128 -192 c0 -119 4 -197 10 -201 7 -4 10 63 10 194
0 190 1 201 19 201 18 0 19 -18 26 -404 4 -222 4 -409 1 -415 -4 -6 -20 -11
-36 -11 -23 0 -31 5 -34 23 -3 12 -8 121 -10 242 -3 121 -9 298 -12 393 -6
154 -5 172 10 172 14 0 16 -22 16 -194z m1938 182 c-3 -7 -56 -41 -119 -76
-182 -102 -441 -244 -481 -265 -41 -21 -68 -17 -98 16 -18 19 -20 35 -20 172
0 84 3 155 7 158 3 4 166 7 361 7 271 0 353 -3 350 -12z m-3078 -106 l0 -107
-52 -33 c-34 -21 -56 -28 -62 -22 -14 14 -20 126 -11 205 l7 65 59 0 59 0 0
-108z m1050 -172 c0 -6 -91 -10 -252 -11 -139 0 -377 -2 -528 -3 -151 -2 -279
-1 -284 1 -4 3 -2 9 5 14 20 13 1059 12 1059 -1z m1220 2 c0 -12 -571 -23
-788 -15 -334 12 -188 23 303 23 267 0 485 -4 485 -8z"/>
<path d="M2242 3043 c-9 -20 2 -436 13 -453 4 -6 108 -10 305 -10 262 0 299 2
304 16 3 9 6 117 6 240 l0 224 -310 0 c-285 0 -310 -1 -318 -17z m593 -55 c3
-18 5 -112 3 -208 l-3 -175 -280 0 -280 0 -3 185 c-1 102 0 195 3 208 l5 22
275 0 274 0 6 -32z"/>
<path d="M2264 2523 c-9 -7 -28 -294 -26 -401 0 -52 1 -52 328 -52 166 0 305
3 308 8 8 13 -8 430 -17 439 -11 10 -578 16 -593 6z m564 -29 c10 -3 12 -45
10 -186 l-3 -183 -276 -3 -277 -2 -6 22 c-11 43 -7 343 6 356 8 8 81 10 272 6
144 -3 267 -7 274 -10z"/>
</g>
</svg>